<?xml version="1.0" encoding="utf-8"?>
<svg width="229px" height="55px" viewBox="0 0 229 55" version="1.1" xmlns:xlink="http://www.w3.org/1999/xlink" xmlns="http://www.w3.org/2000/svg">
  <defs>
    <path d="M229 0L229 0L229 55L0 55L0 0L229 0Z" id="path_1" />
    <clipPath id="clip_1">
      <use xlink:href="#path_1" clip-rule="evenodd" fill-rule="evenodd" />
    </clipPath>
  </defs>
  <g id="rt_logo">
    <path d="M229 0L229 0L229 55L0 55L0 0L229 0Z" id="rt_logo" fill="none" stroke="none" />
    <path d="M91.218 48.753C92.842 50.419 95.1567 51.252 98.162 51.252C99.842 51.252 101.41 50.9953 102.866 50.482L102.866 48.494C102.054 48.774 101.286 48.9747 100.563 49.096C99.8397 49.2173 99.0953 49.278 98.33 49.278C96.7713 49.278 95.4693 49.005 94.424 48.459C93.3787 47.913 92.576 47.003 92.016 45.729C91.456 44.455 91.176 42.7493 91.176 40.612C91.176 38.5307 91.4537 36.8553 92.009 35.586C92.5643 34.3167 93.3763 33.3973 94.445 32.828C95.5137 32.2587 96.8553 31.974 98.47 31.974C99.9727 31.974 101.438 32.1793 102.866 32.59L102.866 30.602C101.391 30.2007 99.898 30 98.386 30C95.2873 30 92.912 30.8657 91.26 32.597C89.608 34.3283 88.782 37.0187 88.782 40.668C88.782 44.392 89.594 47.087 91.218 48.753L91.218 48.753ZM62.888 32.254L62.888 50.986L65.17 50.986L65.17 32.254L72.072 32.254L72.072 30.266L56 30.266L56 32.254L62.888 32.254L62.888 32.254ZM87.07 49.054L76.374 49.054L76.374 41.312L85.572 41.312L85.572 39.394L76.374 39.394L76.374 32.198L86.93 32.198L86.93 30.266L74.12 30.266L74.12 50.986L87.07 50.986L87.07 49.054L87.07 49.054ZM105.292 30.266L105.292 50.986L107.56 50.986L107.56 41.382L118.508 41.382L118.508 50.986L120.776 50.986L120.776 30.266L118.508 30.266L118.508 39.324L107.56 39.324L107.56 30.266L105.292 30.266L105.292 30.266Z" id="Path" fill="#FFFFFF" fill-rule="evenodd" stroke="none" clip-path="url(#clip_1)" />
    <path d="M133.322 44.042L137.9 51L149.034 51L150.336 46.254L157.196 46.254L158.512 51L164.462 51L158.274 30.28L149.328 30.28L143.552 49.6202L139.076 42.964C140.233 42.3853 141.125 41.5967 141.75 40.598C142.375 39.5993 142.688 38.4047 142.688 37.014C142.688 34.6433 141.885 32.8817 140.28 31.729C138.675 30.5763 136.285 30 133.112 30C131.964 30 130.76 30.0747 129.5 30.224C128.24 30.3733 127.073 30.574 126 30.826L126 51L131.978 51L131.978 44L133.322 44.042L133.322 44.042ZM216.82 44.042L221.398 51L227.978 51L222.574 42.964C223.731 42.3853 224.623 41.5967 225.248 40.598C225.873 39.5993 226.186 38.4047 226.186 37.014C226.186 34.6433 225.383 32.8817 223.778 31.729C222.173 30.5763 219.783 30 216.61 30C215.462 30 214.258 30.0747 212.998 30.224C211.738 30.3733 210.571 30.574 209.498 30.826L209.498 51L215.476 51L215.476 44L216.82 44.042L216.82 44.042ZM169.317 51.147C170.432 51.2077 171.475 51.238 172.446 51.238C175.461 51.238 177.939 50.8717 179.88 50.139C181.821 49.4063 183.275 48.2607 184.241 46.702C185.207 45.1433 185.69 43.1227 185.69 40.64C185.69 37.028 184.682 34.3587 182.666 32.632C180.65 30.9053 177.621 30.042 173.58 30.042C172.348 30.042 171.081 30.112 169.779 30.252C168.477 30.392 167.299 30.5833 166.244 30.826L166.244 50.888C167.177 51 168.202 51.0863 169.317 51.147L169.317 51.147ZM200.45 46.254L201.766 51L207.716 51L201.528 30.28L192.582 30.28L186.394 51L192.288 51L193.59 46.254L200.45 46.254L200.45 46.254ZM155.88 41.494L151.652 41.494L153.752 33.836L155.88 41.494L155.88 41.494ZM199.134 41.494L194.906 41.494L197.006 33.836L199.134 41.494L199.134 41.494ZM133.84 39.604C133.243 39.604 132.622 39.5667 131.978 39.492L131.978 34.564C132.585 34.452 133.196 34.396 133.812 34.396C135.94 34.396 137.004 35.2687 137.004 37.014C137.004 37.938 136.74 38.6007 136.213 39.002C135.686 39.4033 134.895 39.604 133.84 39.604L133.84 39.604ZM217.338 39.604C216.741 39.604 216.12 39.5667 215.476 39.492L215.476 34.564C216.083 34.452 216.694 34.396 217.31 34.396C219.438 34.396 220.502 35.2687 220.502 37.014C220.502 37.938 220.238 38.6007 219.711 39.002C219.184 39.4033 218.393 39.604 217.338 39.604L217.338 39.604ZM177.129 45.792C176.35 46.1653 175.344 46.352 174.112 46.352C173.356 46.352 172.763 46.338 172.334 46.31L172.334 35.068C172.567 35.0213 172.852 34.9817 173.188 34.949C173.524 34.9163 173.818 34.9 174.07 34.9C175.274 34.9 176.27 35.0867 177.059 35.46C177.848 35.8333 178.445 36.4377 178.851 37.273C179.257 38.1083 179.46 39.2213 179.46 40.612C179.46 42.0213 179.266 43.1437 178.879 43.979C178.492 44.8143 177.908 45.4187 177.129 45.792L177.129 45.792Z" id="Path" fill="#FFFFFF" fill-rule="evenodd" stroke="none" clip-path="url(#clip_1)" />
    <path d="M24.2786 1L22.6859 1L22.6859 7.51588C10.5832 8.33486 1 18.4147 1 30.7174C1 43.0202 11.456 54 24.2786 54C37.1012 54 46.6574 44.4152 47.4852 32.3104L54 32.3104L54 30.7174C53.991 14.3287 40.6735 1 24.2786 1L24.2786 1ZM24.2786 50.7871C13.2017 50.7871 4.1944 41.7782 4.1944 30.6994C4.1944 19.6207 12.3289 11.5028 22.6589 10.6838L22.6589 32.2924L44.2638 32.2924C43.436 42.6242 34.7796 50.7601 24.2516 50.7601L24.2516 50.7601L24.2786 50.7871L24.2786 50.7871ZM47.5572 29.0975L25.8713 29.0975L25.8713 4.26694C39.1978 5.06792 49.8968 15.7687 50.6976 29.1245L47.5302 29.1245L47.5572 29.0975L47.5572 29.0975Z" id="Shape" fill="#FFFFFF" fill-rule="evenodd" stroke="none" clip-path="url(#clip_1)" />
    <path d="M65.392 26.48L63.8 22.256L58.472 22.256L56.88 26.48L56.296 26.48L60.8 14.64L61.488 14.64L65.992 26.48L65.392 26.48ZM58.672 21.728L63.6 21.728L61.136 15.216L58.672 21.728ZM67.408 26.48L67.408 14.64L67.952 14.64L67.952 25.952L74 25.952L74 26.48L67.408 26.48ZM85.088 14.64L85.688 14.64L85.688 26.48L85.16 26.48L85.16 15.704L80.776 24.88L80.168 24.88L75.784 15.736L75.784 26.48L75.256 26.48L75.256 14.64L75.856 14.64L80.488 24.352L85.088 14.64ZM99.2 26.48L95.104 21.24C94.8533 21.2613 94.5573 21.272 94.216 21.272C93.6293 21.272 93.008 21.2453 92.352 21.192L92.352 26.48L91.808 26.48L91.808 14.792C92.2827 14.7067 92.74 14.6413 93.18 14.596C93.62 14.5507 94.1093 14.528 94.648 14.528C96.1253 14.528 97.2173 14.7973 97.924 15.336C98.6307 15.8747 98.984 16.7147 98.984 17.856C99 19.7493 97.9067 20.856 95.704 21.176L99.864 26.48L99.2 26.48ZM94.2 20.752C95.1973 20.752 96.008 20.6467 96.632 20.436C97.256 20.2253 97.7133 19.9093 98.004 19.488C98.2947 19.0667 98.44 18.5307 98.44 17.88C98.44 17.2027 98.3093 16.6587 98.048 16.248C97.7867 15.8373 97.3773 15.536 96.82 15.344C96.2627 15.152 95.528 15.056 94.616 15.056C94.168 15.056 93.7747 15.072 93.436 15.104C93.0973 15.136 92.736 15.184 92.352 15.248L92.352 20.672C92.7307 20.704 93.044 20.7253 93.292 20.736C93.54 20.7467 93.8427 20.752 94.2 20.752L94.2 20.752ZM105 26.624C103.571 26.624 102.459 26.1373 101.664 25.164C100.869 24.1907 100.472 22.656 100.472 20.56C100.472 18.4693 100.872 16.936 101.672 15.96C102.472 14.984 103.581 14.496 105 14.496C106.429 14.496 107.541 14.9827 108.336 15.956C109.131 16.9293 109.528 18.464 109.528 20.56C109.528 22.6507 109.128 24.184 108.328 25.16C107.528 26.136 106.419 26.624 105 26.624L105 26.624ZM105 26.088C106.253 26.088 107.225 25.66 107.916 24.804C108.607 23.948 108.952 22.544 108.952 20.592C108.952 18.6133 108.608 17.192 107.92 16.328C107.232 15.464 106.259 15.032 105 15.032C103.747 15.032 102.775 15.46 102.084 16.316C101.393 17.172 101.048 18.576 101.048 20.528C101.048 22.5067 101.392 23.928 102.08 24.792C102.768 25.656 103.741 26.088 105 26.088L105 26.088ZM115.568 26.624C114.64 26.624 113.879 26.4693 113.284 26.16C112.689 25.8507 112.248 25.3747 111.96 24.732C111.672 24.0893 111.528 23.2613 111.528 22.248L111.528 14.64L112.072 14.64L112.072 22.328C112.072 23.2027 112.195 23.916 112.44 24.468C112.685 25.02 113.064 25.4293 113.576 25.696C114.088 25.9627 114.752 26.096 115.568 26.096C116.384 26.096 117.048 25.9627 117.56 25.696C118.072 25.4293 118.451 25.02 118.696 24.468C118.941 23.916 119.064 23.2027 119.064 22.328L119.064 14.64L119.592 14.64L119.592 22.248C119.592 23.2613 119.449 24.0893 119.164 24.732C118.879 25.3747 118.44 25.8507 117.848 26.16C117.256 26.4693 116.496 26.624 115.568 26.624L115.568 26.624ZM130.016 14.64L130.544 14.64L130.544 26.48L129.944 26.48L122.696 15.496L122.696 26.48L122.168 26.48L122.168 14.64L122.768 14.64L130.016 25.624L130.016 14.64ZM135.728 26.56C135.301 26.56 134.899 26.548 134.52 26.524C134.141 26.5 133.696 26.4587 133.184 26.4L133.184 14.792C134.107 14.616 135.011 14.528 135.896 14.528C137.741 14.528 139.131 15.0267 140.064 16.024C140.997 17.0213 141.464 18.5333 141.464 20.56C141.464 22.608 140.985 24.12 140.028 25.096C139.071 26.072 137.637 26.56 135.728 26.56L135.728 26.56ZM135.744 26.032C136.901 26.032 137.859 25.8413 138.616 25.46C139.373 25.0787 139.941 24.4853 140.32 23.68C140.699 22.8747 140.888 21.8347 140.888 20.56C140.888 18.6667 140.476 17.276 139.652 16.388C138.828 15.5 137.563 15.056 135.856 15.056C135.227 15.056 134.517 15.1147 133.728 15.232L133.728 25.904C134.32 25.9893 134.992 26.032 135.744 26.032L135.744 26.032ZM145.592 26.48L145.592 15.168L141.528 15.168L141.528 14.64L150.2 14.64L150.2 15.168L146.136 15.168L146.136 26.48L145.592 26.48ZM158.128 26.48L156.536 22.256L151.208 22.256L149.616 26.48L149.032 26.48L153.536 14.64L154.224 14.64L158.728 26.48L158.128 26.48ZM151.408 21.728L156.336 21.728L153.872 15.216L151.408 21.728ZM165.136 20.36C166 20.5093 166.64 20.8427 167.056 21.36C167.472 21.8773 167.68 22.5307 167.68 23.32C167.68 24.0453 167.516 24.6453 167.188 25.12C166.86 25.5947 166.339 25.9533 165.624 26.196C164.909 26.4387 163.976 26.56 162.824 26.56C162.349 26.56 161.905 26.548 161.492 26.524C161.079 26.5 160.629 26.4587 160.144 26.4L160.144 14.8C160.619 14.7093 161.084 14.6413 161.54 14.596C161.996 14.5507 162.509 14.528 163.08 14.528C164.563 14.528 165.643 14.7787 166.32 15.28C166.997 15.7813 167.336 16.5547 167.336 17.6C167.336 18.2987 167.161 18.8907 166.812 19.376C166.463 19.8613 165.904 20.1893 165.136 20.36L165.136 20.36ZM163.072 15.056C162.16 15.056 161.365 15.1173 160.688 15.24L160.688 20.128L163.368 20.128C164.573 20.128 165.444 19.9213 165.98 19.508C166.516 19.0947 166.784 18.4587 166.784 17.6C166.784 16.9867 166.66 16.496 166.412 16.128C166.164 15.76 165.769 15.4893 165.228 15.316C164.687 15.1427 163.968 15.056 163.072 15.056L163.072 15.056ZM162.84 26.032C163.901 26.032 164.744 25.9333 165.368 25.736C165.992 25.5387 166.44 25.244 166.712 24.852C166.984 24.46 167.12 23.9493 167.12 23.32C167.12 22.4133 166.832 21.7427 166.256 21.308C165.68 20.8733 164.789 20.656 163.584 20.656L160.688 20.656L160.688 25.904C161.285 25.9893 162.003 26.032 162.84 26.032L162.84 26.032ZM169.472 26.48L169.472 14.64L170.016 14.64L170.016 25.952L176.064 25.952L176.064 26.48L169.472 26.48ZM177.832 25.952L184.12 25.952L184.12 26.48L177.288 26.48L177.288 14.64L184.04 14.64L184.04 15.168L177.832 15.168L177.832 20.128L183.28 20.128L183.28 20.656L177.832 20.656L177.832 25.952Z" id="Path" fill="#FFFFFF" fill-rule="evenodd" stroke="none" clip-path="url(#clip_1)" />
    <path d="M198.168 24.328L198.168 26.48L190.384 26.48L190.384 25.08L193.664 20.992C194.16 20.368 194.512 19.8373 194.72 19.4C194.928 18.9627 195.032 18.5493 195.032 18.16C195.032 17.616 194.861 17.2173 194.52 16.964C194.179 16.7107 193.627 16.584 192.864 16.584C192.405 16.584 191.947 16.6253 191.488 16.708C191.029 16.7907 190.611 16.904 190.232 17.048L190.232 14.928C190.6 14.8 191.055 14.6947 191.596 14.612C192.137 14.5293 192.651 14.488 193.136 14.488C194.629 14.488 195.748 14.764 196.492 15.316C197.236 15.868 197.608 16.7307 197.608 17.904C197.603 18.528 197.472 19.1413 197.216 19.744C196.96 20.3467 196.525 21.0213 195.912 21.768L193.816 24.328L198.168 24.328ZM203.448 26.632C201.971 26.632 200.833 26.1347 200.036 25.14C199.239 24.1453 198.84 22.6187 198.84 20.56C198.84 18.496 199.239 16.968 200.036 15.976C200.833 14.984 201.971 14.488 203.448 14.488C204.925 14.488 206.063 14.9853 206.86 15.98C207.657 16.9747 208.056 18.5013 208.056 20.56C208.056 22.6187 207.656 24.1453 206.856 25.14C206.056 26.1347 204.92 26.632 203.448 26.632L203.448 26.632ZM203.448 24.496C203.896 24.496 204.269 24.3733 204.568 24.128C204.867 23.8827 205.095 23.472 205.252 22.896C205.409 22.32 205.488 21.544 205.488 20.568C205.488 19.5867 205.409 18.8067 205.252 18.228C205.095 17.6493 204.867 17.2373 204.568 16.992C204.269 16.7467 203.896 16.624 203.448 16.624C203 16.624 202.627 16.7467 202.328 16.992C202.029 17.2373 201.801 17.648 201.644 18.224C201.487 18.8 201.408 19.576 201.408 20.552C201.408 21.5387 201.487 22.32 201.644 22.896C201.801 23.472 202.028 23.8827 202.324 24.128C202.62 24.3733 202.995 24.496 203.448 24.496L203.448 24.496ZM216.536 24.328L216.536 26.48L208.752 26.48L208.752 25.08L212.032 20.992C212.528 20.368 212.88 19.8373 213.088 19.4C213.296 18.9627 213.4 18.5493 213.4 18.16C213.4 17.616 213.229 17.2173 212.888 16.964C212.547 16.7107 211.995 16.584 211.232 16.584C210.773 16.584 210.315 16.6253 209.856 16.708C209.397 16.7907 208.979 16.904 208.6 17.048L208.6 14.928C208.968 14.8 209.423 14.6947 209.964 14.612C210.505 14.5293 211.019 14.488 211.504 14.488C212.997 14.488 214.116 14.764 214.86 15.316C215.604 15.868 215.976 16.7307 215.976 17.904C215.971 18.528 215.84 19.1413 215.584 19.744C215.328 20.3467 214.893 21.0213 214.28 21.768L212.184 24.328L216.536 24.328ZM226.216 22.032L226.216 24.048L224.688 24.048L224.688 26.48L222.344 26.48L222.344 24.048L216.584 24.048L216.584 22.624L220.704 14.64L223.208 14.64L219.44 22.032L222.344 22.032L222.6 18.64L224.688 18.64L224.688 22.032L226.216 22.032Z" id="Path" fill="#FFFFFF" fill-rule="evenodd" stroke="none" clip-path="url(#clip_1)" />
  </g>
</svg>